<svg xmlns="http://www.w3.org/2000/svg" viewBox="0 0 900 980" role="img" aria-labelledby="title desc">
  <title id="title">Developer workstation illustration</title>
  <desc id="desc">A premium maroon and black illustration of a developer workspace with code panels.</desc>
  <defs>
    <linearGradient id="bg" x1="0" y1="0" x2="1" y2="1">
      <stop offset="0" stop-color="#2b0610"/>
      <stop offset=".54" stop-color="#09080d"/>
      <stop offset="1" stop-color="#7d1026"/>
    </linearGradient>
    <linearGradient id="screen" x1="0" y1="0" x2="1" y2="1">
      <stop offset="0" stop-color="#20131a"/>
      <stop offset="1" stop-color="#07070b"/>
    </linearGradient>
    <linearGradient id="gold" x1="0" y1="0" x2="1" y2="1">
      <stop offset="0" stop-color="#f6d28a"/>
      <stop offset="1" stop-color="#b7792a"/>
    </linearGradient>
    <filter id="shadow" x="-20%" y="-20%" width="140%" height="140%">
      <feDropShadow dx="0" dy="30" stdDeviation="30" flood-color="#000" flood-opacity=".45"/>
    </filter>
  </defs>
  <rect width="900" height="980" fill="url(#bg)"/>
  <circle cx="740" cy="150" r="190" fill="#b51f3f" opacity=".2"/>
  <circle cx="120" cy="810" r="240" fill="#d7aa5d" opacity=".09"/>
  <g opacity=".28" fill="none" stroke="#fff" stroke-width="1">
    <path d="M90 142h250M112 182h180M602 782h210M640 820h118"/>
    <path d="M720 270l54 54-54 54M196 270l-54 54 54 54" stroke="#d7aa5d" stroke-width="10" stroke-linecap="round" stroke-linejoin="round"/>
  </g>
  <g filter="url(#shadow)">
    <rect x="168" y="176" width="566" height="382" rx="22" fill="url(#screen)" stroke="#ffffff" stroke-opacity=".16"/>
    <rect x="198" y="212" width="506" height="56" rx="12" fill="#ffffff" opacity=".08"/>
    <circle cx="226" cy="240" r="8" fill="#b51f3f"/>
    <circle cx="252" cy="240" r="8" fill="#d7aa5d"/>
    <circle cx="278" cy="240" r="8" fill="#ffffff" opacity=".45"/>
    <rect x="216" y="310" width="170" height="18" rx="9" fill="#d7aa5d"/>
    <rect x="216" y="352" width="280" height="14" rx="7" fill="#ffffff" opacity=".58"/>
    <rect x="216" y="390" width="226" height="14" rx="7" fill="#b51f3f"/>
    <rect x="216" y="428" width="314" height="14" rx="7" fill="#ffffff" opacity=".35"/>
    <rect x="530" y="306" width="136" height="136" rx="18" fill="#7d1026" opacity=".76"/>
    <path d="M571 381l-28-28 28-28M625 325l28 28-28 28" fill="none" stroke="#fff" stroke-width="14" stroke-linecap="round" stroke-linejoin="round"/>
  </g>
  <g filter="url(#shadow)">
    <path d="M286 666c14-82 82-132 164-132 84 0 151 52 164 132l24 146H262l24-146z" fill="#140d12"/>
    <path d="M338 668c10-54 56-88 112-88s102 34 112 88l14 82H324l14-82z" fill="#7d1026"/>
    <circle cx="450" cy="440" r="92" fill="#e5b47a"/>
    <path d="M356 416c10-74 74-128 151-104 62 19 82 76 74 128-55-6-104-29-145-66-24 25-50 38-80 42z" fill="#151015"/>
    <rect x="374" y="488" width="152" height="36" rx="18" fill="#e5b47a"/>
    <path d="M386 472c34 28 88 28 122 0" fill="none" stroke="#5d2731" stroke-width="9" stroke-linecap="round"/>
    <rect x="216" y="712" width="468" height="84" rx="20" fill="#100d12" stroke="#ffffff" stroke-opacity=".16"/>
    <rect x="336" y="742" width="226" height="24" rx="12" fill="url(#gold)"/>
  </g>
  <g opacity=".88">
    <rect x="82" y="582" width="186" height="140" rx="18" fill="#ffffff" opacity=".08" stroke="#ffffff" stroke-opacity=".16"/>
    <rect x="112" y="622" width="88" height="12" rx="6" fill="#d7aa5d"/>
    <rect x="112" y="656" width="122" height="10" rx="5" fill="#fff" opacity=".44"/>
    <rect x="112" y="684" width="78" height="10" rx="5" fill="#b51f3f"/>
    <rect x="644" y="594" width="176" height="118" rx="18" fill="#ffffff" opacity=".08" stroke="#ffffff" stroke-opacity=".16"/>
    <path d="M690 656h84M732 614v84" stroke="#d7aa5d" stroke-width="12" stroke-linecap="round"/>
  </g>
</svg>
